<?xml version="1.0" standalone="no"?>
<!DOCTYPE svg PUBLIC "-//W3C//DTD SVG 20010904//EN"
 "http://www.w3.org/TR/2001/REC-SVG-20010904/DTD/svg10.dtd">
<svg version="1.0" xmlns="http://www.w3.org/2000/svg"
 width="204.000000pt" height="45.000000pt" viewBox="0 0 204.000000 45.000000"
 preserveAspectRatio="xMidYMid meet">

<g transform="translate(0.000000,45.000000) scale(0.100000,-0.100000)"
fill="#000000" stroke="none">
<path d="M1962 438 c-7 -7 -12 -21 -12 -33 0 -12 5 -26 12 -33 28 -28 78 -7
78 33 0 27 -18 45 -45 45 -12 0 -26 -5 -33 -12z m56 -10 c15 -15 16 -38 2 -38
-6 0 -10 8 -8 18 2 11 -3 17 -17 17 -13 0 -20 -7 -20 -20 0 -11 5 -20 12 -20
6 0 15 -3 19 -7 9 -10 -8 -10 -30 -2 -28 11 -13 64 19 64 6 0 16 -5 23 -12z"/>
<path d="M1410 316 c0 -113 2 -128 20 -146 26 -26 60 -26 60 -1 0 10 -9 21
-20 24 -18 5 -20 15 -22 123 -3 104 -5 119 -20 122 -16 3 -18 -8 -18 -122z"/>
<path d="M85 411 c-101 -45 -110 -176 -16 -238 29 -20 47 -23 120 -23 109 0
131 12 131 74 0 26 -6 48 -15 56 -13 11 -13 15 0 33 20 29 19 60 -4 88 -16 20
-29 23 -97 26 -59 2 -89 -2 -119 -16z m45 -45 c0 -44 -22 -63 -56 -47 -14 6
-28 11 -32 10 -4 0 11 -9 33 -20 l40 -18 -47 -1 -47 0 11 30 c14 42 26 46 53
20 21 -20 25 -21 31 -7 3 8 1 24 -5 36 -14 26 -14 31 4 31 10 0 15 -10 15 -34z
m-20 -25 c0 -10 -7 -8 -25 9 -19 18 -22 26 -13 32 14 9 38 -17 38 -41z m147
23 c8 -20 -8 -48 -31 -52 -12 -3 -16 4 -16 32 0 30 4 36 20 36 11 0 23 -7 27
-16z m-143 -106 c21 -29 22 -90 2 -82 -12 4 -13 12 -5 31 5 14 7 28 5 31 -3 2
-8 -7 -12 -22 -8 -31 -24 -33 -50 -5 -18 20 -18 21 1 35 35 26 51 17 24 -13
l-24 -28 28 24 c33 30 22 51 -18 33 -32 -15 -32 -15 -39 3 -10 26 69 20 88 -7z
m141 -28 c0 -29 -4 -36 -22 -38 -21 -3 -23 1 -23 38 0 37 2 41 23 38 18 -2 22
-9 22 -38z"/>
<path d="M330 291 l0 -141 30 0 31 0 -3 138 -3 137 -27 3 -28 3 0 -140z"/>
<path d="M400 290 l0 -140 30 0 c29 0 30 2 30 44 0 25 4 48 10 51 5 3 21 -17
35 -45 22 -43 29 -50 55 -50 l30 0 -38 78 -39 77 33 50 c40 60 42 75 10 75
-19 0 -33 -13 -60 -57 l-35 -58 -1 58 c0 57 0 57 -30 57 l-30 0 0 -140z"/>
<path d="M600 290 l0 -140 80 0 c73 0 80 2 80 20 0 17 -7 20 -50 20 l-50 0 0
40 0 40 40 0 c33 0 40 3 40 20 0 17 -7 20 -40 20 -39 0 -40 1 -40 34 0 34 1
35 48 38 39 3 47 6 47 23 0 18 -8 20 -77 23 l-78 3 0 -141z"/>
<path d="M791 413 c-17 -14 -24 -30 -24 -53 0 -28 9 -41 52 -80 37 -32 52 -52
49 -65 -5 -29 -42 -26 -46 3 -3 19 -9 23 -30 20 -22 -2 -27 -8 -24 -28 3 -35
37 -60 82 -60 52 0 83 27 82 70 -1 27 -11 43 -58 87 -56 51 -57 54 -40 71 16
16 18 16 36 -5 25 -31 60 -31 60 1 0 32 -21 47 -73 53 -32 4 -48 0 -66 -14z"/>
<path d="M1516 404 c-7 -19 1 -34 19 -34 8 0 16 4 19 9 9 14 -4 41 -19 41 -7
0 -16 -7 -19 -16z"/>
<path d="M1056 389 c-25 -19 -26 -25 -26 -109 0 -109 15 -135 80 -135 34 0 47
6 66 28 20 24 24 39 24 97 0 80 -12 113 -47 129 -36 16 -67 13 -97 -10z m34
-44 c0 -16 -6 -25 -15 -25 -18 0 -18 5 -5 31 14 26 20 24 20 -6z m70 -11 c0
-8 -7 -14 -15 -14 -10 0 -15 10 -15 26 0 22 2 25 15 14 8 -7 15 -19 15 -26z
m-2 -95 c-3 -48 -23 -65 -61 -55 -24 6 -27 11 -27 51 l0 45 46 0 45 0 -3 -41z"/>
<path d="M1251 334 c-30 -25 -31 -29 -31 -105 0 -72 2 -79 20 -79 17 0 19 8
22 76 2 60 7 79 21 88 34 22 52 -4 57 -85 4 -66 7 -74 25 -74 16 0 21 8 23 40
7 78 -6 124 -41 146 -42 25 -59 24 -96 -7z"/>
<path d="M1625 348 c-38 -20 -45 -40 -45 -121 0 -69 2 -78 18 -75 14 3 18 17
22 77 4 56 9 77 23 85 34 22 52 -4 57 -85 4 -60 8 -74 23 -77 15 -3 17 5 17
71 0 91 -4 104 -41 122 -33 18 -47 18 -74 3z"/>
<path d="M1814 341 c-58 -36 -65 -110 -16 -163 35 -38 101 -39 137 -3 14 13
25 29 25 35 0 16 -36 12 -50 -6 -15 -17 -80 -16 -81 1 0 6 27 21 60 35 33 14
63 29 67 33 12 12 -18 58 -48 73 -36 19 -57 18 -94 -5z m82 -35 c18 -14 16
-16 -29 -35 -59 -25 -57 -25 -57 -2 0 20 34 51 55 51 6 0 20 -6 31 -14z"/>
<path d="M1514 337 c-3 -8 -4 -51 -2 -98 3 -70 6 -84 21 -87 15 -3 17 7 17 97
0 84 -3 101 -15 101 -9 0 -18 -6 -21 -13z"/>
<path d="M317 62 c6 -4 13 -21 16 -37 l4 -30 2 32 c0 17 7 34 14 36 6 3 -1 6
-18 6 -16 0 -25 -3 -18 -7z"/>
<path d="M390 35 c0 -19 5 -35 10 -35 6 0 10 7 10 15 0 8 7 15 15 15 8 0 15
-7 15 -15 0 -8 5 -15 10 -15 6 0 10 16 10 35 0 19 -4 35 -10 35 -5 0 -10 -7
-10 -15 0 -8 -7 -15 -15 -15 -8 0 -15 7 -15 15 0 8 -4 15 -10 15 -5 0 -10 -16
-10 -35z"/>
<path d="M490 35 c0 -33 2 -35 33 -34 30 2 30 2 5 6 -34 5 -37 20 -5 26 l22 4
-22 2 c-13 0 -23 5 -23 10 0 5 10 12 23 14 19 4 18 4 -5 6 -26 1 -28 -2 -28
-34z"/>
<path d="M623 54 c-3 -9 -2 -24 4 -33 11 -17 53 -28 53 -13 0 5 -10 8 -22 8
-33 -1 -31 36 2 45 l25 7 -28 1 c-17 1 -30 -5 -34 -15z"/>
<path d="M719 37 l16 -34 13 30 c16 38 15 45 -2 21 -14 -18 -15 -18 -21 -1 -4
9 -11 17 -15 17 -4 0 0 -15 9 -33z"/>
<path d="M794 56 c-14 -37 22 -74 47 -49 6 6 1 9 -13 9 -33 -1 -31 36 2 45
l25 7 -28 1 c-16 1 -30 -5 -33 -13z"/>
<path d="M882 38 c-2 -35 0 -38 26 -37 22 1 23 2 5 6 -16 3 -23 13 -26 36 -4
31 -4 31 -5 -5z"/>
<path d="M963 35 c0 -22 2 -30 4 -17 2 12 2 30 0 40 -3 9 -5 -1 -4 -23z"/>
<path d="M1012 35 c0 -24 2 -31 5 -17 l5 24 24 -23 24 -22 -1 39 c-2 29 -3 32
-6 12 l-4 -28 -24 28 -24 27 1 -40z"/>
<path d="M1109 54 c-17 -21 0 -49 32 -49 16 0 25 6 27 20 2 18 2 18 -8 3 -12
-19 -39 -24 -41 -8 -5 29 -2 35 21 41 22 6 23 7 4 8 -12 1 -27 -6 -35 -15z"/>
<path d="M1251 35 c1 -40 1 -40 10 -10 5 18 5 33 -1 39 -7 7 -10 -4 -9 -29z"/>
<path d="M1306 62 c-3 -5 -1 -22 4 -38 8 -29 8 -29 9 9 1 36 -3 45 -13 29z"/>
<path d="M1369 44 c-5 -15 -12 -32 -16 -38 -3 -6 0 -5 8 2 17 15 49 16 49 0 0
-6 2 -9 5 -6 8 7 -16 68 -26 68 -5 0 -14 -12 -20 -26z m26 -4 c3 -5 1 -10 -4
-10 -6 0 -11 5 -11 10 0 6 2 10 4 10 3 0 8 -4 11 -10z"/>
<path d="M1450 33 c0 -28 3 -34 10 -23 7 12 13 13 28 4 16 -10 18 -8 17 20 0
26 -4 31 -27 34 -26 3 -28 1 -28 -35z m43 12 c1 -5 -6 -11 -15 -13 -11 -2 -18
3 -18 13 0 17 30 18 33 0z"/>
<path d="M1541 35 c0 -33 1 -37 10 -22 10 18 11 18 31 0 21 -18 21 -18 9 5
-10 18 -10 27 0 38 6 8 7 14 1 14 -5 0 -16 -7 -23 -16 -12 -14 -14 -14 -20 3
-5 12 -8 5 -8 -22z"/>
<path d="M1630 35 c0 -32 2 -35 28 -34 23 2 24 2 5 6 -13 2 -23 8 -23 13 0 5
10 11 23 13 l22 4 -22 2 c-13 0 -23 5 -23 10 0 5 10 12 23 14 19 4 18 4 -5 6
-26 1 -28 -2 -28 -34z"/>
<path d="M1717 62 c6 -4 13 -21 16 -37 l4 -30 2 32 c0 17 7 34 14 36 6 3 -1 6
-18 6 -16 0 -25 -3 -18 -7z"/>
<path d="M1272 28 c4 -12 22 -12 26 0 1 5 -4 9 -13 9 -9 0 -14 -4 -13 -9z"/>
</g>
</svg>
